<svg xmlns="http://www.w3.org/2000/svg" xmlns:xlink="http://www.w3.org/1999/xlink" width="500" zoomAndPan="magnify" viewBox="0 0 375 374.999991" height="500" preserveAspectRatio="xMidYMid meet" version="1.0"><defs><clipPath id="a6707d3ab3"><path d="M 112.5 112.5 L 119.25 112.5 L 119.25 119.25 L 112.5 119.25 Z M 112.5 112.5 " clip-rule="nonzero"/></clipPath><clipPath id="68e46dcee1"><path d="M 10 33 L 357 33 L 357 336 L 10 336 Z M 10 33 " clip-rule="nonzero"/></clipPath><clipPath id="82f55b2a04"><path d="M 119.523438 -65.523438 L 409.476562 77.363281 L 255.316406 390.191406 L -34.636719 247.304688 Z M 119.523438 -65.523438 " clip-rule="nonzero"/></clipPath><clipPath id="213b22d103"><path d="M 409.582031 77.414062 L 119.625 -65.472656 L -34.53125 247.355469 L 255.421875 390.242188 Z M 409.582031 77.414062 " clip-rule="nonzero"/></clipPath></defs><g clip-path="url(#a6707d3ab3)"><path fill="#5f57c8" d="M 119.332031 115.914062 C 119.332031 116.367188 119.246094 116.804688 119.070312 117.222656 C 118.898438 117.640625 118.652344 118.011719 118.332031 118.332031 C 118.011719 118.652344 117.640625 118.898438 117.222656 119.070312 C 116.804688 119.246094 116.367188 119.332031 115.914062 119.332031 C 115.464844 119.332031 115.027344 119.246094 114.609375 119.070312 C 114.191406 118.898438 113.820312 118.652344 113.5 118.332031 C 113.179688 118.011719 112.933594 117.640625 112.761719 117.222656 C 112.585938 116.804688 112.5 116.367188 112.5 115.914062 C 112.5 115.464844 112.585938 115.027344 112.761719 114.609375 C 112.933594 114.191406 113.179688 113.820312 113.5 113.5 C 113.820312 113.179688 114.191406 112.933594 114.609375 112.761719 C 115.027344 112.585938 115.464844 112.5 115.914062 112.5 C 116.367188 112.5 116.804688 112.585938 117.222656 112.761719 C 117.640625 112.933594 118.011719 113.179688 118.332031 113.5 C 118.652344 113.820312 118.898438 114.191406 119.070312 114.609375 C 119.246094 115.027344 119.332031 115.464844 119.332031 115.914062 Z M 119.332031 115.914062 " fill-opacity="1" fill-rule="nonzero"/></g><g clip-path="url(#68e46dcee1)"><g clip-path="url(#82f55b2a04)"><g clip-path="url(#213b22d103)"><path fill="#5f57c8" d="M 210.007812 45.527344 C 159.710938 69.269531 109.183594 92.335938 59.1875 116.601562 C 20.511719 135.390625 4.179688 170.8125 12.464844 212.933594 C 20.90625 255.503906 49.320312 281.871094 85.140625 301.957031 C 92.757812 306.648438 100.152344 311.792969 108.144531 315.730469 C 175.917969 350.441406 256.5 338.625 295.28125 285.785156 C 330.554688 237.777344 351.738281 183.386719 356.503906 123.527344 C 360.566406 72.316406 334.152344 40.75 282.703125 34.507812 C 257.582031 31.496094 233.171875 34.644531 210.007812 45.527344 Z M 210.007812 45.527344 " fill-opacity="1" fill-rule="nonzero"/></g></g></g></svg>